<svg id="Layer_1" enable-background="new 0 0 512 512" height="512" viewBox="0 0 512 512" width="512" xmlns="http://www.w3.org/2000/svg"><g><g><path d="m14.997 483c-1.932 0-3.881-.373-5.737-1.142-5.605-2.322-9.26-7.791-9.26-13.858v-238.75c0-43.975 35.776-79.75 79.75-79.75h232c43.975 0 79.75 35.775 79.75 79.75v113.75c0 43.975-35.775 79.75-79.75 79.75h-230.287l-55.857 55.856c-2.869 2.871-6.706 4.394-10.609 4.394z" fill="#4ab8f7"/></g><path d="m311.75 149.5h-116v273.25h116c43.975 0 79.75-35.775 79.75-79.75v-113.75c0-43.975-35.775-79.75-79.75-79.75z" fill="#4a7aff"/><path d="m432.25 29h-232c-43.974 0-79.75 35.775-79.75 79.75v113.75c0 43.975 35.776 79.75 79.75 79.75h230.287l55.856 55.856c2.869 2.87 6.706 4.395 10.609 4.394 1.933 0 3.882-.373 5.737-1.142 5.605-2.322 9.26-7.791 9.26-13.858v-238.75c.001-43.975-35.774-79.75-79.749-79.75z" fill="#f2f6fc"/><path d="m432.25 29h-116v273.25h114.287l55.856 55.856c2.869 2.87 6.706 4.395 10.609 4.394 1.933 0 3.882-.373 5.737-1.142 5.605-2.322 9.26-7.791 9.26-13.858v-238.75c.001-43.975-35.774-79.75-79.749-79.75z" fill="#e9edf5"/><g><g><path d="m225.875 179.5c7.846 0 15.363-6.899 15-15-.364-8.127-6.591-15-15-15-7.846 0-15.363 6.899-15 15 .364 8.127 6.591 15 15 15z" fill="#636978"/></g></g><g><g><path d="m316.25 179.5c7.846 0 15.363-6.899 15-15-.364-8.127-6.591-15-15-15-7.846 0-15.363 6.899-15 15 .364 8.127 6.591 15 15 15z" fill="#636978"/></g></g><g><g><path d="m406.625 179.5c7.846 0 15.363-6.899 15-15-.364-8.127-6.591-15-15-15-7.846 0-15.363 6.899-15 15 .364 8.127 6.591 15 15 15z" fill="#414952"/></g></g><path d="m331.25 164.5c-.364-8.127-6.591-15-15-15v30c7.846 0 15.363-6.899 15-15z" fill="#414952"/></g></svg>